#N canvas 2025 909 612 679 10;
#X declare -path absGAMME -path ../absGAMME;
#X declare -stdpath SyncJams/pure-data -stdpath moonlib;
#X declare -lib moonlib -path moonlib;
#X declare -lib abl_link~ -path abl_link~;
#X obj 310 293 r /BPM;
#X floatatom 310 315 5 0 0 0 - - -;
#X obj 313 264 s /BPM;
#X floatatom 295 232 5 0 0 0 - - -;
#X msg 345 233 120;
#X msg 379 234 150;
#X obj 89 87 route tick;
#X obj 205 246 r /BPM;
#X obj 205 290 /;
#X obj 425 177 r /GAMME;
#X floatatom 425 199 5 0 0 0 - - -;
#X obj 89 337 pack f f;
#X obj 425 159 s /GAMME;
#X msg 431 135 145;
#X msg 465 137 2741;
#X obj 486 181 GAMMEKBV /BASS 1;
#X obj 486 117 GAMMEKBV /GAMME;
#X obj 486 244 GAMMEKBV /CHORD;
#X obj 491 333 GAMMEKBV /CHORD;
#X obj 422 248 s /CHORD;
#X obj 426 281 r /CHORD;
#X msg 422 230 145;
#X floatatom 426 305 5 0 0 0 - - -;
#X obj 64 2 declare -path absGAMME -path ../absGAMME;
#X obj 64 22 declare -stdpath SyncJams/pure-data -stdpath moonlib;
#X floatatom 170 87 5 0 0 0 - - -;
#X msg 198 336 tempo \$1 \, bang;
#X obj 146 247 s /BPM;
#X msg 205 268 60000 \$1;
#X obj 89 197 unpack f f;
#X obj 86 462 s CLOCK;
#X obj 89 404 pack f f;
#X msg 56 382 -1;
#X floatatom 98 249 7 0 0 0 - - -;
#X obj 90 114 r /BPM;
#X obj 93 139 change;
#X obj 89 66 l syncjams \$0/syncer \, bpm 10 \, namespace syncjams
\, port 23232;
#N canvas 280 745 646 427 SYNC 0;
#X obj 75 97 route set-state;
#X obj 94 223 spigot 0;
#X obj 75 279 t f f;
#X obj 75 257 netsend -u;
#X obj 75 303 tgl 15 0 empty empty empty 17 7 0 10 -262144 -1 -1 0
1;
#X msg 75 202 disconnect;
#X obj 75 118 list prepend send;
#X obj 75 139 list trim;
#X msg 114 183 connect 255.255.255.255 17010;
#X obj 445 118 netreceive -u 17010;
#X obj 445 161 list trim;
#X obj 318 10 loadbang;
#X obj 445 140 list prepend state null;
#X obj 75 160 t b a b;
#X obj 75 71 r SYNCER;
#X obj 445 183 s SYNCER/r;
#X obj 318 73 t b f;
#X obj 318 93 tgl 15 0 empty empty empty 17 7 0 10 -262144 -1 -1 1
1;
#X msg 318 179 /SIG \$1;
#X obj 318 134 list prepend \$1;
#X obj 300 11 bng 15 250 50 0 empty empty empty 17 7 0 10 -262144 -1
-1;
#X obj 318 113 metro 10000;
#X obj 318 155 route symbol;
#X obj 318 52 + 2800;
#X obj 318 31 random 700;
#X obj 411 206 route /SIG;
#X obj 239 269 spigot;
#X obj 272 248 tgl 15 0 empty empty empty 17 7 0 10 -262144 -1 -1 0
1;
#X obj 441 22 inlet;
#X obj 411 227 s /SIG;
#X connect 0 0 6 0;
#X connect 1 0 3 0;
#X connect 2 0 4 0;
#X connect 2 1 1 1;
#X connect 3 0 2 0;
#X connect 5 0 3 0;
#X connect 6 0 7 0;
#X connect 7 0 13 0;
#X connect 8 0 3 0;
#X connect 9 0 12 0;
#X connect 9 0 25 0;
#X connect 10 0 15 0;
#X connect 11 0 24 0;
#X connect 12 0 10 0;
#X connect 13 0 5 0;
#X connect 13 1 1 0;
#X connect 13 2 8 0;
#X connect 14 0 0 0;
#X connect 16 0 17 0;
#X connect 16 1 21 1;
#X connect 17 0 21 0;
#X connect 18 0 6 0;
#X connect 19 0 22 0;
#X connect 21 0 19 0;
#X connect 22 0 18 0;
#X connect 23 0 16 0;
#X connect 24 0 23 0;
#X connect 25 0 29 0;
#X connect 27 0 26 1;
#X restore 279 93 pd SYNC;
#X obj 216 366 loadbang;
#X msg 216 387 0 500;
#N canvas 1 783 342 271 change 0;
#X obj 71 30 inlet;
#X obj 71 52 t f f;
#X obj 98 78 -;
#X obj 98 99 abs;
#X obj 98 120 > 0.01;
#X obj 71 150 list prepend;
#X obj 71 171 route 1;
#X obj 71 192 t f f;
#X obj 71 213 outlet;
#X connect 0 0 1 0;
#X connect 1 0 5 0;
#X connect 1 1 2 0;
#X connect 2 0 3 0;
#X connect 3 0 4 0;
#X connect 4 0 5 1;
#X connect 5 0 6 0;
#X connect 6 0 7 0;
#X connect 7 0 8 0;
#X connect 7 1 2 1;
#X restore 146 218 pd change;
#X floatatom 164 119 5 0 0 0 - - -;
#X obj 279 115 linkSJ SYNCER /BPM-;
#X obj 279 137 linkSJ SYNCER /GAMME;
#X obj 279 157 linkSJ SYNCER /BASS;
#X obj 279 178 linkSJ SYNCER /CHORD;
#X obj 310 338 r CLOCK;
#X obj 310 360 ndmetro 4 4;
#X obj 310 382 == 0;
#X obj 310 404 change;
#X obj 310 423 s TEMPOLED;
#X obj 486 44 spigot;
#X obj 533 22 tgl 15 0 empty empty empty 17 7 0 10 -262144 -1 -1 0
1;
#X obj 486 22 r /SIG;
#X obj 486 65 print;
#X obj 310 450 r SYNCER/r;
#X obj 310 494 list split 1;
#X obj 344 514 list trim;
#X obj 310 472 route state;
#X obj 344 534 route /UNLOCKSNAP;
#X obj 344 555 tgl 15 0 empty empty empty 17 7 0 10 -262144 -1 -1 0
1;
#X obj 344 575 sel 0 1;
#X msg 344 596 ro;
#X msg 374 596 rw;
#X msg 344 637 nohup \$1 &;
#X obj 344 616 symbol;
#X obj 344 657 shell;
#X obj 66 43 declare -lib moonlib -path moonlib;
#X obj 59 227 i;
#X obj 42 273 maxlib/average 10;
#X floatatom 58 303 0 0 0 0 - - -;
#X obj 338 3 declare -lib abl_link~ -path abl_link~;
#X msg 463 553 \; pd dsp 1;
#X obj 183 573 s /BPM;
#N canvas 1 783 342 271 change 0;
#X obj 71 30 inlet;
#X obj 71 52 t f f;
#X obj 98 78 -;
#X obj 98 99 abs;
#X obj 98 120 > 0.01;
#X obj 71 150 list prepend;
#X obj 71 171 route 1;
#X obj 71 192 t f f;
#X obj 71 213 outlet;
#X connect 0 0 1 0;
#X connect 1 0 5 0;
#X connect 1 1 2 0;
#X connect 2 0 3 0;
#X connect 3 0 4 0;
#X connect 4 0 5 1;
#X connect 5 0 6 0;
#X connect 6 0 7 0;
#X connect 7 0 8 0;
#X connect 7 1 2 1;
#X restore 183 544 pd change;
#X obj 89 367 ndmetro 128 1;
#X obj 28 164 Carabiner/Carabiner;
#N canvas 1410 1040 450 300 abl_link~ 0;
#X obj 56 21 inlet;
#X msg 321 72 tempo \$1;
#X msg 110 73 resolution \$1;
#X msg 213 93 reset \$1 \$2;
#X obj 213 72 pack f f;
#X floatatom 220 191 5 0 0 1 beat_time - -;
#X floatatom 183 209 5 0 0 1 phase - -;
#X floatatom 146 231 5 0 0 1 step - -;
#X floatatom 257 170 5 0 0 1 tempo - -;
#X obj 33 53 tgl 15 0 empty empty empty 17 7 0 10 -262144 -1 -1 1 1
;
#X obj 146 145 abl_link~ 1 0 4 134;
#X floatatom 321 53 5 0 0 2 tempo - -;
#X floatatom 258 53 5 0 0 2 quantum - -;
#X floatatom 213 53 5 0 0 2 beat - -;
#X floatatom 110 53 5 0 0 2 resolution - -;
#X msg 33 73 connect \$1;
#X floatatom 326 136 5 0 0 0 - - -;
#X obj 326 114 r #abl_link_num_peers;
#X obj 297 239 s /BPM;
#X obj 59 239 outlet;
#X obj 7 4 loadbang;
#X msg 7 27 1;
#X connect 0 0 11 0;
#X connect 1 0 10 0;
#X connect 2 0 10 0;
#X connect 3 0 10 0;
#X connect 4 0 3 0;
#X connect 8 0 18 0;
#X connect 9 0 15 0;
#X connect 10 0 7 0;
#X connect 10 0 19 0;
#X connect 10 1 6 0;
#X connect 10 2 5 0;
#X connect 10 3 8 0;
#X connect 11 0 1 0;
#X connect 12 0 4 1;
#X connect 13 0 4 0;
#X connect 14 0 2 0;
#X connect 15 0 10 0;
#X connect 17 0 16 0;
#X connect 20 0 21 0;
#X connect 21 0 9 0;
#X restore 172 173 pd abl_link~;
#X floatatom 226 215 5 0 0 0 - - -;
#X connect 0 0 1 0;
#X connect 3 0 2 0;
#X connect 4 0 2 0;
#X connect 5 0 2 0;
#X connect 6 0 25 0;
#X connect 7 0 28 0;
#X connect 8 0 11 1;
#X connect 8 0 26 0;
#X connect 8 0 31 1;
#X connect 9 0 10 0;
#X connect 11 0 75 0;
#X connect 13 0 12 0;
#X connect 14 0 12 0;
#X connect 20 0 22 0;
#X connect 21 0 19 0;
#X connect 26 0 75 0;
#X connect 28 0 8 0;
#X connect 29 0 33 0;
#X connect 29 0 68 0;
#X connect 29 0 69 0;
#X connect 29 0 11 0;
#X connect 29 1 40 0;
#X connect 31 0 30 0;
#X connect 32 0 30 0;
#X connect 34 0 35 0;
#X connect 35 0 41 0;
#X connect 35 0 76 0;
#X connect 35 0 77 0;
#X connect 36 0 6 0;
#X connect 38 0 39 0;
#X connect 39 0 30 0;
#X connect 40 0 27 0;
#X connect 46 0 47 0;
#X connect 47 0 48 0;
#X connect 48 0 49 0;
#X connect 49 0 50 0;
#X connect 51 0 54 0;
#X connect 52 0 51 1;
#X connect 53 0 51 0;
#X connect 55 0 58 0;
#X connect 56 1 57 0;
#X connect 57 0 59 0;
#X connect 58 0 56 0;
#X connect 59 0 60 0;
#X connect 60 0 61 0;
#X connect 61 0 62 0;
#X connect 61 1 63 0;
#X connect 62 0 65 0;
#X connect 63 0 65 0;
#X connect 64 0 66 0;
#X connect 65 0 64 0;
#X connect 69 0 70 0;
#X connect 74 0 73 0;
#X connect 75 0 31 0;
#X connect 75 1 31 0;
#X connect 76 0 29 0;
#X connect 77 0 11 0;
#X connect 77 0 78 0;
