#N canvas 1470 89 450 572 10;
#X obj 1 11 cnv 15 42 28 empty empty empty 20 12 0 14 -33289 -66577
0;
#X obj 236 106 / 127;
#X obj 217 357 sel 0 1;
#X msg 217 384 color 10 11 10;
#X obj 236 36 pack f f;
#X obj 14 12 tgl 15 0 \$0-\$3-snd \$0-\$3-rcv \$3 -4 21 0 10 -233017
-128992 -233017 0 1;
#N canvas 305 1194 223 140 route-in 0;
#X obj 33 95 outlet;
#X floatatom 87 72 5 0 0 0 - - -;
#X obj 141 12 loadbang;
#X msg 141 35 0;
#X obj 29 17 r MidiMix-rcv;
#X obj 27 44 route \$3;
#X connect 2 0 3 0;
#X connect 3 0 0 0;
#X connect 4 0 5 0;
#X connect 5 0 0 0;
#X connect 5 0 1 0;
#X restore 94 11 pd route-in;
#X obj 14 54 * 127;
#X obj 57 246 loadbang;
#X obj 57 228 bng 15 250 50 0 empty empty empty 17 7 0 10 -262144 -1
-1;
#X obj 13 268 t b f;
#X obj 13 304 pack f f;
#X msg 15 327 \$1 \$2;
#X obj 236 81 spigot;
#X obj 13 80 t f b;
#X obj 66 125 del 50;
#X msg 66 147 1;
#X msg 31 126 0;
#X obj 68 173 tgl 15 0 empty empty empty 17 7 0 10 -262144 -1 -1 1
1;
#X obj 62 95 bng 15 250 50 0 empty empty empty 17 7 0 10 -262144 -1
-1;
#X obj 236 14 notein \$2;
#X obj 236 57 route \$1;
#X obj 15 350 noteout \$2;
#X obj 57 270 f \$1;
#X obj 218 426 s \$0-\$3-rcv;
#X msg 240 405 color 13 22 0;
#N canvas 1059 760 276 342 route 0;
#X obj 30 38 inlet;
#X obj 31 152 pack s f;
#X obj 89 97 loadbang;
#X obj 119 57 bng 15 250 50 0 empty empty empty 17 7 0 10 -262144 -1
-1;
#X obj 30 112 t b f;
#X obj 89 118 makesymbol \$3;
#X obj 31 196 s MidiMix-snd;
#X msg 31 173 \$1 \$2;
#X obj 30 67 change;
#X connect 0 0 8 0;
#X connect 1 0 7 0;
#X connect 2 0 5 0;
#X connect 3 0 5 0;
#X connect 4 0 1 0;
#X connect 4 1 1 1;
#X connect 5 0 1 0;
#X connect 7 0 6 0;
#X connect 8 0 4 0;
#X restore 103 377 pd route;
#N canvas 0 738 332 420 BoutIntel 0;
#X obj 167 198 ||;
#X obj 184 173 t b f;
#X obj 164 235 tgl 15 0 empty empty empty 17 7 0 10 -262144 -1 -1 0
1;
#X obj 188 144 tgl 15 0 empty empty empty 17 7 0 10 -262144 -1 -1 0
1;
#X obj 106 377 outlet on-off;
#X obj 145 62 sel 0 1;
#X obj 114 40 t f f;
#X obj 180 89 del 250;
#X obj 75 165 spigot;
#X obj 121 144 tgl 15 0 empty empty empty 17 7 0 10 -262144 -1 -1 0
1;
#X msg 177 116 0;
#X msg 146 98 1;
#X obj 72 8 inlet;
#X obj 227 227 sel 0 1;
#X obj 222 380 outlet led;
#X obj 207 255 del 10;
#X obj 261 252 del 10;
#X msg 204 288 0;
#X msg 264 290 1;
#X obj 230 342 tgl 15 0 empty empty empty 17 7 0 10 -262144 -1 -1 0
1;
#X connect 0 0 2 0;
#X connect 1 0 0 0;
#X connect 1 1 0 1;
#X connect 2 0 4 0;
#X connect 2 0 13 0;
#X connect 3 0 1 0;
#X connect 5 0 8 0;
#X connect 5 1 7 0;
#X connect 5 1 11 0;
#X connect 6 0 0 0;
#X connect 6 1 5 0;
#X connect 7 0 10 0;
#X connect 8 0 3 0;
#X connect 9 0 8 1;
#X connect 10 0 9 0;
#X connect 11 0 9 0;
#X connect 12 0 6 0;
#X connect 13 0 15 0;
#X connect 13 1 16 0;
#X connect 15 0 17 0;
#X connect 16 0 18 0;
#X connect 17 0 19 0;
#X connect 18 0 19 0;
#X connect 19 0 14 0;
#X restore 226 186 pd BoutIntel;
#X obj 271 241 tgl 15 0 empty empty empty 17 7 0 10 -262144 -1 -1 0
1;
#X obj 14 213 change;
#X obj 218 321 change;
#X text 30 425 arg1:midi-note \; arg2:midi-ch \; arg3:nom \; arg4:0=normal
1=intel;
#X obj 236 141 demux 0 1;
#X obj 300 88 loadbang;
#X obj 304 114 f \$4;
#X obj 322 50 tgl 15 0 empty empty empty 17 7 0 10 -262144 -1 -1 1
1;
#X obj 322 23 r \$3-intel;
#X floatatom 145 86 5 0 0 0 - - -;
#X obj 30 179 tgl 15 0 empty empty empty 17 7 0 10 -262144 -1 -1 0
1;
#X obj 70 193 r Led-\$3;
#X connect 1 0 32 0;
#X connect 1 0 37 0;
#X connect 2 0 3 0;
#X connect 2 1 25 0;
#X connect 3 0 24 0;
#X connect 4 0 21 0;
#X connect 5 0 7 0;
#X connect 5 0 30 0;
#X connect 6 0 5 0;
#X connect 7 0 14 0;
#X connect 8 0 23 0;
#X connect 9 0 23 0;
#X connect 10 0 11 0;
#X connect 10 1 11 1;
#X connect 11 0 12 0;
#X connect 12 0 22 0;
#X connect 13 0 1 0;
#X connect 14 0 29 0;
#X connect 14 1 15 0;
#X connect 14 1 17 0;
#X connect 14 1 19 0;
#X connect 15 0 16 0;
#X connect 16 0 18 0;
#X connect 17 0 18 0;
#X connect 18 0 13 1;
#X connect 20 0 4 0;
#X connect 20 1 4 1;
#X connect 21 0 13 0;
#X connect 23 0 11 0;
#X connect 25 0 24 0;
#X connect 27 0 30 0;
#X connect 27 1 28 0;
#X connect 28 0 5 0;
#X connect 28 0 30 0;
#X connect 29 0 10 0;
#X connect 30 0 2 0;
#X connect 30 0 26 0;
#X connect 32 0 5 0;
#X connect 32 1 27 0;
#X connect 33 0 34 0;
#X connect 34 0 32 1;
#X connect 35 0 34 0;
#X connect 36 0 35 0;
#X connect 38 0 29 0;
#X connect 39 0 38 0;
#X coords 0 -1 1 1 44 30 2 0 10;
