#N canvas 2096 332 450 572 10;
#X obj 310 55 / 127;
#X floatatom 297 244 5 0 0 0 - - -;
#X obj 270 276 sel 0 1;
#X msg 293 324 color 14 22 0;
#X msg 270 303 color 10 11 10;
#X obj 233 446 pack f f;
#X obj 233 467 route \$3;
#X obj 64 77 * 127;
#X msg 195 111 set \$1;
#X text 30 425 arg1:midi-ch \; arg2:note-Solo \;;
#N canvas 964 410 276 342 route-Mode 0;
#X obj 31 20 inlet;
#X obj 61 52 change;
#X obj 26 169 pack s f;
#X msg 26 190 \$1 \$2;
#X obj 89 97 loadbang;
#X obj 119 57 bng 15 250 50 0 empty empty empty 17 7 0 10 -262144 -1
-1;
#X obj 30 112 t b f;
#X obj 61 79 tgl 15 0 empty empty empty 17 7 0 10 -262144 -1 -1 0 1
;
#X obj 25 218 s DjCtl-snd;
#X obj 89 116 makesymbol \$4;
#X connect 0 0 6 0;
#X connect 1 0 6 0;
#X connect 1 0 7 0;
#X connect 2 0 3 0;
#X connect 3 0 8 0;
#X connect 4 0 9 0;
#X connect 5 0 9 0;
#X connect 6 0 2 0;
#X connect 6 1 2 1;
#X connect 9 0 2 0;
#X restore 327 170 pd route-Mode;
#X obj 61 34 mknob 25 100 0 1 0 0 \$0-Potar-snd \$0-Potar-rcv empty
-2 -6 0 8 -233017 -128992 -233017 0 1;
#X obj 272 346 s \$0-Potar-rcv;
#X floatatom 320 491 5 0 0 0 - - -;
#X floatatom 385 55 5 0 0 0 - - -;
#X obj 250 416 t b f;
#X obj 308 12 ctlin \$3 \$2;
#X floatatom 339 104 5 0 0 0 - - -;
#X obj 48 146 ctlout \$3 \$2;
#X connect 0 0 1 0;
#X connect 0 0 2 0;
#X connect 0 0 10 0;
#X connect 0 0 8 0;
#X connect 0 0 17 0;
#X connect 2 0 4 0;
#X connect 2 1 3 0;
#X connect 3 0 12 0;
#X connect 4 0 12 0;
#X connect 5 0 6 0;
#X connect 6 0 13 0;
#X connect 8 0 11 0;
#X connect 11 0 7 0;
#X connect 15 0 5 0;
#X connect 15 1 5 1;
#X connect 16 0 14 0;
#X connect 16 0 0 0;
#X coords 0 -1 1 1 150 50 1 0 10;
