#N canvas 429 203 636 987 10;
#X declare -path KEP/AutoAbstractions;
#X declare -path KEP/AutoPreset;
#X declare -path KEP/absKEP;
#X declare -path KEP/absGAMME;
#X declare -path KEP/absTL;
#X declare -path KEP/rj;
#X declare -path KEP/HurFace;
#X declare -stdpath Fraise;
#X declare -path KEP;
#X declare -path KEP/PdTl;
#X declare -path KEP/abs;
#X declare -stdpath iemlib -stdlib iemlib;
#X declare -stdpath moocow -stdlib moocow;
#X declare -stdpath readdir -stdlib readdir;
#X declare -stdpath flatgui -stdlib flatgui;
#X declare -stdpath cxc -stdlib cxc;
#X declare -stdpath mrpeach -stdlib mrpeach;
#X declare -stdpath zexy -stdlib zexy;
#X declare -stdpath maxlib -stdlib maxlib;
#X declare -stdpath ggee -stdlib ggee;
#X declare -stdpath creb -stdlib creb;
#X declare -stdpath hcs -stdlib hcs;
#X declare -stdpath motex -stdlib motex;
#X declare -stdpath moonlib -stdlib moonlib;
#X declare -stdpath osc -stdlib osc;
#X declare -path KEP/absXtouch-XR18;
#X declare -stdpath pd-autotuned-master -stdlib pd-autotuned-master
;
#X declare -path absGAMME -path ../absGAMME;
#X declare -path Dec;
#X declare -path absKEP;
#X declare -stdpath iemlib -lib iemlib1;
#X declare -path abs;
#X declare -stdpath iemlib -lib iemlib;
#X declare -stdpath iemlib -lib iemlib2;
#X declare -stdpath motex -lib motex;
#X declare -path AutoPreset;
#X declare -path AutoAbstractions;
#X declare -path rj;
#X obj 11 31 cnv 15 270 370 empty empty empty 20 12 0 14 -204786 -66577
0;
#X obj 23 294 mknob 25 100 0 1 0 0 Vol1-snd Vol1-rcv Vol1 -2 -6 0 8
-262144 -1 -1 0 1;
#X obj 54 294 mknob 25 100 0 1 0 0 Vol2-snd Vol2-rcv Vol2 -2 -6 0 8
-262144 -1 -1 0 1;
#X obj 85 294 mknob 25 100 0 1 0 0 Vol3-snd Vol3-rcv Vol3 -2 -6 0 8
-262144 -1 -1 0 1;
#X obj 116 294 mknob 25 100 0 1 0 0 Vol4-snd Vol4-rcv Vol4 -2 -6 0
8 -262144 -1 -1 0 1;
#X obj 148 294 mknob 25 100 0 1 0 0 Vol5-snd Vol5-rcv Vol5 -2 -6 0
8 -262144 -1 -1 0 1;
#X obj 179 294 mknob 25 100 0 1 0 0 Vol6-snd Vol6-rcv Vol6 -2 -6 0
8 -262144 -1 -1 0 1;
#X obj 210 294 mknob 25 100 0 1 0 0 Vol7-snd Vol7-rcv Vol7 -2 -6 0
8 -262144 -1 -1 0 1;
#X obj 241 294 mknob 25 100 0 1 0 0 Vol8-snd Vol8-rcv Vol8 -2 -6 0
8 -262144 -1 -1 0 1;
#X obj 114 90 mknob 25 100 0 1 0 0 Vol9-snd Vol9-rcv Vol9 -2 -6 0 8
-262144 -1 -1 0 1;
#X obj 25 250 mknob 25 100 0 1 0 0 FX1-snd FX1-rcv FX1 -2 -6 0 8 -262144
-1 -1 5379 1;
#X obj 56 250 mknob 25 100 0 1 0 0 FX2-snd FX2-rcv FX2 -2 -6 0 8 -262144
-1 -1 3430 1;
#X obj 87 250 mknob 25 100 0 1 0 0 FX3-snd FX3-rcv FX3 -2 -6 0 8 -262144
-1 -1 5613 1;
#X obj 118 250 mknob 25 100 0 1 0 0 FX4-snd FX4-rcv FX4 -2 -6 0 8 -262144
-1 -1 3352 1;
#X obj 150 250 mknob 25 100 0 1 0 0 FX5-snd FX5-rcv FX5 -2 -6 0 8 -262144
-1 -1 156 1;
#X obj 181 250 mknob 25 100 0 1 0 0 FX6-snd FX6-rcv FX6 -2 -6 0 8 -262144
-1 -1 1481 1;
#X obj 212 250 mknob 25 100 0 1 0 0 FX7-snd FX7-rcv FX7 -2 -6 0 8 -262144
-1 -1 4833 1;
#X obj 243 250 mknob 25 100 0 1 0 0 FX8-snd FX8-rcv FX8 -2 -6 0 8 -262144
-1 -1 1559 1;
#X obj 114 47 mknob 25 100 0 1 0 0 FX9-snd FX9-rcv FX9 -2 -6 0 8 -262144
-1 -1 0 1;
#X obj 24 208 mknob 25 100 0 1 0 0 Sel1-snd Sel1-rcv Sel1 -2 -6 0 8
-262144 -1 -1 2884 1;
#X obj 55 208 mknob 25 100 0 1 0 0 Sel2-snd Sel2-rcv Sel2 -2 -6 0 8
-262144 -1 -1 2806 1;
#X obj 86 208 mknob 25 100 0 1 0 0 Sel3-snd Sel3-rcv Sel3 -2 -6 0 8
-262144 -1 -1 4131 1;
#X obj 117 208 mknob 25 100 0 1 0 0 Sel4-snd Sel4-rcv Sel4 -2 -6 0
8 -262144 -1 -1 0 1;
#X obj 149 208 mknob 25 100 0 1 0 0 Sel5-snd Sel5-rcv Sel5 -2 -6 0
8 -262144 -1 -1 4287 1;
#X obj 180 208 mknob 25 100 0 1 0 0 Sel6-snd Sel6-rcv Sel6 -2 -6 0
8 -262144 -1 -1 6938 1;
#X obj 211 208 mknob 25 100 0 1 0 0 Sel7-snd Sel7-rcv Sel7 -2 -6 0
8 -262144 -1 -1 9900 1;
#X obj 242 208 mknob 25 100 0 1 0 0 Sel8-snd Sel8-rcv Sel8 -2 -6 0
8 -262144 -1 -1 3508 1;
#X obj 53 161 mknob 25 100 0 1 0 0 Vol123-snd Vol123-rcv Vol123 -2
-6 0 8 -262144 -1 -1 0 1;
#X obj 177 159 mknob 25 100 0 1 0 0 Vol456-snd Vol456-rcv Vol456 -2
-6 0 8 -262144 -1 -1 0 1;
#X obj 214 88 mknob 25 100 0 1 0 0 VolGen-snd VolGen-rcv VolGen -2
-6 0 8 -262144 -1 -1 0 1;
#X obj 25 361 tgl 20 0 Play1-snd Play1-rcv Play1 -2 28 0 8 -262144
-1 -1 0 1;
#X obj 28 332 tgl 15 0 Led1-snd Led1-rcv Led1 -2 22 0 8 -262144 -1
-1 0 1;
#X obj 57 361 tgl 20 0 Play2-snd Play2-rcv Play2 -2 28 0 8 -262144
-1 -1 0 1;
#X obj 60 332 tgl 15 0 Led2-snd Led2-rcv Led2 -2 22 0 8 -262144 -1
-1 0 1;
#X obj 87 361 tgl 20 0 Play3-snd Play3-rcv Play3 -2 28 0 8 -262144
-1 -1 0 1;
#X obj 90 332 tgl 15 0 Led3-snd Led3-rcv Led3 -2 22 0 8 -262144 -1
-1 0 1;
#X obj 119 361 tgl 20 0 Play4-snd Play4-rcv Play4 -2 28 0 8 -262144
-1 -1 0 1;
#X obj 122 332 tgl 15 0 Led4-snd Led4-rcv Led4 -2 22 0 8 -262144 -1
-1 0 1;
#X obj 151 361 tgl 20 0 Play5-snd Play5-rcv Play5 -2 28 0 8 -262144
-1 -1 0 1;
#X obj 154 332 tgl 15 0 Led5-snd Led5-rcv Led5 -2 22 0 8 -262144 -1
-1 0 1;
#X obj 183 361 tgl 20 0 Play6-snd Play6-rcv Play6 -2 28 0 8 -262144
-1 -1 0 1;
#X obj 186 332 tgl 15 0 Led6-snd Led6-rcv Led6 -2 22 0 8 -262144 -1
-1 0 1;
#X obj 213 361 tgl 20 0 Play7-snd Play7-rcv Play7 -2 28 0 8 -262144
-1 -1 0 1;
#X obj 216 332 tgl 15 0 Led7-snd Led7-rcv Led7 -2 22 0 8 -262144 -1
-1 0 1;
#X obj 245 361 tgl 20 0 Play8-snd Play8-rcv Play8 -2 28 0 8 -262144
-1 -1 0 1;
#X obj 248 332 tgl 15 0 Led8-snd Led8-rcv Led8 -2 22 0 8 -262144 -1
-1 0 1;
#X obj 116 154 tgl 20 0 Play9-snd Play9-rcv Play9 -2 28 0 8 -262144
-1 -1 0 1;
#X obj 119 125 tgl 15 0 Led9-snd Led9-rcv Led9 -2 22 0 8 -262144 -1
-1 0 1;
#X obj 46 56 tgl 20 0 Shift-snd Shift-rcv Shift -2 28 0 8 -262144 -1
-1 0 1;
#X obj 433 414 r CLOCK;
#X obj 487 465 unpack f f;
#X floatatom 487 485 5 0 0 0 - - -, f 5;
#X floatatom 544 485 5 0 0 0 - - -, f 5;
#X obj 489 715 bng 50 50 50 0 empty empty empty 17 7 0 10 -262144 -1
-1;
#X obj 45 618 s /BPM;
#X floatatom 81 524 5 0 0 0 - - -, f 5;
#X msg 24 543 160;
#X obj 346 107 OUTvu 1;
#X obj 376 107 OUTvu 2;
#X obj 372 475 r /BPM;
#X floatatom 372 497 5 0 0 0 - - -, f 5;
#X msg 70 550 120;
#X obj 299 223 MasterBlaster;
#X msg 137 507 1;
#X text 128 487 stop;
#X obj 15 482 MAINDIR;
#N canvas 2010 92 324 230 BPM/Vol 0;
#X obj 9 17 r VolGen-snd;
#X obj 54 39 r Shift-snd;
#X obj 54 59 tgl 15 0 empty empty empty 17 7 0 10 -262144 -1 -1 0 1
;
#X obj 68 180 s /BPM;
#X obj 68 157 * 300;
#X obj 154 143 bng 15 250 50 0 empty empty stop 17 7 0 10 -262144 -1
-1;
#X msg 154 164 1;
#X obj 9 162 outlet;
#X floatatom 154 127 5 0 0 0 - - -, f 5;
#X obj 68 134 crossPot2;
#X obj 146 62 r /BPM;
#X obj 9 101 crossPot;
#X obj 108 90 / 300;
#X obj 54 80 == 0;
#X obj 161 16 loadbang;
#X msg 161 38 0;
#X floatatom 26 130 5 0 0 0 - - -, f 5;
#X connect 0 0 11 0;
#X connect 0 0 9 0;
#X connect 1 0 2 0;
#X connect 2 0 9 1;
#X connect 2 0 13 0;
#X connect 4 0 3 0;
#X connect 5 0 6 0;
#X connect 9 0 4 0;
#X connect 10 0 8 0;
#X connect 10 0 12 0;
#X connect 11 0 7 0;
#X connect 11 0 16 0;
#X connect 12 0 9 2;
#X connect 13 0 11 1;
#X connect 14 0 15 0;
#X connect 15 0 2 0;
#X coords 0 -1 1 1 60 60 1 150 100;
#X restore 426 28 pd BPM/Vol;
#X obj 103 623 s /GAMME;
#X obj 170 621 s /BASS;
#X obj 232 623 s /CHORD;
#X msg 107 603 2741;
#X msg 229 597 145;
#X obj 170 539 del 250;
#X obj 184 501 loadbang;
#X obj 487 443 route list;
#X obj 359 438 Vocal Mic 9;
#X obj 274 416 Rythme Kick 4;
#X obj 270 438 Rythme Snare 5;
#X obj 257 466 Rythme HH 6;
#X obj 257 488 Rythme Bass 7;
#X obj 408 223 SongBlaster;
#X obj 165 414 BBdec Batteries 1;
#X obj 166 435 BBdec Electros 2;
#X obj 153 463 BBdec Percus 3;
#X obj 318 573 switch~;
#X obj 318 555 tgl 15 1 empty empty empty 17 7 0 10 -262144 -1 -1 1
1;
#X msg 75 596 50;
#N canvas 0 625 293 271 LedTempo 0;
#X obj 58 29 inlet;
#X obj 85 88 outlet;
#X obj 58 59 t b f;
#X obj 58 112 t b b;
#X msg 58 140 1, f 1;
#X obj 85 134 del 250;
#X msg 85 157 0, f 1;
#X obj 58 173 tgl 15 0 empty empty empty 17 7 0 10 -262144 -1 -1 0
1;
#X obj 58 200 s LedTempo;
#X connect 0 0 2 0;
#X connect 2 0 3 0;
#X connect 2 1 1 0;
#X connect 3 0 4 0;
#X connect 3 1 5 0;
#X connect 4 0 7 0;
#X connect 5 0 6 0;
#X connect 6 0 7 0;
#X connect 7 0 8 0;
#X restore 489 693 pd LedTempo;
#X obj 108 540 del 2000;
#X obj 498 506 i;
#X obj 553 520 change;
#X obj 311 19 r MidiMix-snd;
#X obj 354 86 route A3;
#X obj 360 415 Melo Juno 8;
#N canvas 258 685 1067 431 solotrucs 0;
#X obj 19 44 r SoloOnSel-1;
#X obj 105 45 r SoloOnSel-2;
#X obj 192 44 r SoloOnSel-3;
#X obj 625 46 r SoloOnSel-8;
#X obj 278 45 r SoloOnSel-4;
#X obj 366 45 r SoloOnSel-5;
#X obj 452 46 r SoloOnSel-6;
#X obj 540 45 r SoloOnSel-7;
#X obj 26 153 s SoloOn-1;
#X obj 112 154 s SoloOn-2;
#X obj 199 153 s SoloOn-3;
#X obj 285 154 s SoloOn-4;
#X obj 373 154 s SoloOn-5;
#X obj 459 155 s SoloOn-6;
#X obj 547 153 s SoloOn-7;
#X obj 632 155 s SoloOn-8;
#X obj 566 296 table SoloTab;
#X obj 26 130 f;
#X obj 112 132 f;
#X obj 199 131 f;
#X obj 285 133 f;
#X obj 373 130 f;
#X obj 458 132 f;
#X obj 546 131 f;
#X obj 632 133 f;
#X connect 0 0 18 0;
#X connect 0 0 19 0;
#X connect 0 0 20 0;
#X connect 0 0 21 0;
#X connect 0 0 22 0;
#X connect 0 0 23 0;
#X connect 0 0 24 0;
#X connect 1 0 17 0;
#X connect 1 0 19 0;
#X connect 1 0 20 0;
#X connect 1 0 21 0;
#X connect 1 0 22 0;
#X connect 1 0 23 0;
#X connect 1 0 24 0;
#X connect 2 0 17 0;
#X connect 2 0 18 0;
#X connect 2 0 20 0;
#X connect 2 0 21 0;
#X connect 2 0 22 0;
#X connect 2 0 23 0;
#X connect 2 0 24 0;
#X connect 3 0 17 0;
#X connect 3 0 18 0;
#X connect 3 0 19 0;
#X connect 3 0 20 0;
#X connect 3 0 21 0;
#X connect 3 0 22 0;
#X connect 3 0 23 0;
#X connect 4 0 17 0;
#X connect 4 0 18 0;
#X connect 4 0 19 0;
#X connect 4 0 21 0;
#X connect 4 0 22 0;
#X connect 4 0 23 0;
#X connect 4 0 24 0;
#X connect 5 0 17 0;
#X connect 5 0 18 0;
#X connect 5 0 19 0;
#X connect 5 0 20 0;
#X connect 5 0 22 0;
#X connect 5 0 23 0;
#X connect 5 0 24 0;
#X connect 6 0 17 0;
#X connect 6 0 18 0;
#X connect 6 0 19 0;
#X connect 6 0 20 0;
#X connect 6 0 21 0;
#X connect 6 0 23 0;
#X connect 6 0 24 0;
#X connect 7 0 17 0;
#X connect 7 0 18 0;
#X connect 7 0 19 0;
#X connect 7 0 20 0;
#X connect 7 0 21 0;
#X connect 7 0 22 0;
#X connect 7 0 24 0;
#X connect 17 0 8 0;
#X connect 18 0 9 0;
#X connect 19 0 10 0;
#X connect 20 0 11 0;
#X connect 21 0 12 0;
#X connect 22 0 13 0;
#X connect 23 0 14 0;
#X connect 24 0 15 0;
#X restore 266 516 pd solotrucs;
#X floatatom 243 553 5 0 0 0 - - -, f 5;
#X msg 169 597 4;
#X msg 39 509 90;
#X obj 2 415 ../domoNetMidi BlasterMidi;
#X msg 94 494 -1;
#X obj 554 543 sel 0;
#X obj 151 35 cnv 15 98 42 empty empty Blaster 5 12 0 14 -4032 -66577
0;
#X obj 426 92 MASTERSvol \$0 \$1;
#X obj 11 666 fraise_interface \$2 \$1 \$0;
#X obj 481 110 INvu 1;
#N canvas 782 295 1016 639 declare-orig 0;
#X obj 10 550 l declare -path /usr/lib/pd-extended/extra/iemlib/;
#X obj 802 114 moonlib/mknob 25 100 0 127 0 0 -233017 empty empty -2
-6 0 8 -262144 -262144 -262144 0 1;
#X obj 576 515 l /home/al1/pd-externals/Bidouille/PdPatchs/0Morsso0/alternateur
;
#X obj 2 310 declare -path KEP/AutoAbstractions;
#X obj 3 331 declare -path KEP/AutoPreset;
#X obj 4 352 declare -path KEP/absKEP;
#X obj 4 410 declare -path KEP/absGAMME;
#X obj 6 433 declare -path KEP/absTL;
#X obj 550 365 l declare -path KEP/absIEMLIB;
#X obj 7 477 declare -path KEP/rj;
#X obj 7 499 declare -path KEP/HurFace;
#X obj 278 412 declare -stdpath Fraise;
#X obj 13 574 l declare -path ./SyncJams-master/pure-data;
#X obj 11 601 l declare -path ./pd-net-sync-master;
#X obj 2 266 declare -path KEP;
#X obj 4 378 declare -path KEP/PdTl;
#X obj 3 289 declare -path KEP/abs;
#X obj 738 221 l syncjams;
#X obj 799 271 l uid;
#X obj 264 34 declare -stdpath iemlib -stdlib iemlib;
#X obj 263 55 l declare -stdpath cyclone -stdlib cyclone;
#X obj 264 124 l declare -stdpath unauthorized -stdlib unauthorized
;
#X obj 269 247 declare -stdpath moocow -stdlib moocow;
#X obj 270 271 declare -stdpath readdir -stdlib readdir;
#X obj 268 293 declare -stdpath flatgui -stdlib flatgui;
#X obj 554 319 l declare -stdpath arraysize;
#X obj 554 342 l declare -stdpath comport;
#X obj 771 341 l declare -stdlib comport;
#X obj 771 318 l declare -stdlib arraysize;
#X obj 277 361 declare -stdpath cxc -stdlib cxc;
#X obj 278 382 declare -stdpath mrpeach -stdlib mrpeach;
#X obj 267 99 declare -stdpath zexy -stdlib zexy;
#X obj 266 150 declare -stdpath maxlib -stdlib maxlib;
#X obj 261 74 declare -stdpath ggee -stdlib ggee;
#X obj 267 222 declare -stdpath creb -stdlib creb;
#X obj 265 199 declare -stdpath hcs -stdlib hcs;
#X obj 267 175 declare -stdpath motex -stdlib motex;
#X obj 640 206 ead~;
#X obj 260 12 declare -stdpath moonlib -stdlib moonlib;
#X obj 556 389 l declare -path KEP/FraisePd;
#X obj 569 12 declare -stdpath osc -stdlib osc;
#X obj 11 522 declare -path KEP/absXtouch-XR18;
#X obj 548 157 declare -stdpath pd-autotuned-master -stdlib pd-autotuned-master
, f 56;
#X obj 277 465 declare -path absGAMME -path ../absGAMME;
#X obj 54 40 declare -path Dec;
#X obj 19 64 declare -path absKEP;
#X obj 607 45 declare -stdpath iemlib -lib iemlib1;
#X obj 25 88 declare -path abs;
#X obj 636 68 declare -stdpath iemlib -lib iemlib;
#X obj 676 91 declare -stdpath iemlib -lib iemlib2;
#X obj 710 195 declare -stdpath motex -lib motex;
#X obj 25 108 declare -path AutoPreset;
#X obj 14 138 declare -path AutoAbstractions;
#X obj 20 173 declare -path rj;
#X restore 19 458 pd declare-orig;
#X obj 489 662 t b;
#X obj 440 576 NDmetro 4 4;
#N canvas 23 613 450 300 aconnect 0;
#X obj 77 219 shell;
#X obj 67 65 t b b;
#X msg 52 151 /usr/bin/aconnect 128:1 20:0;
#X msg 82 178 /usr/bin/aconnect 20:0 128:0;
#X msg 275 179 /usr/bin/aconnect -x;
#X obj 114 19 loadbang;
#X obj 67 31 bng 15 250 50 0 empty empty empty 17 7 0 10 -262144 -1
-1;
#X obj 39 107 del 250;
#X connect 1 0 7 0;
#X connect 1 1 3 0;
#X connect 2 0 0 0;
#X connect 3 0 0 0;
#X connect 4 0 0 0;
#X connect 5 0 1 0;
#X connect 6 0 1 0;
#X connect 7 0 2 0;
#X restore 515 799 pd aconnect midi;
#X obj 534 45 l truc;
#X connect 49 0 74 0;
#X connect 49 0 107 0;
#X connect 50 0 51 0;
#X connect 50 1 52 0;
#X connect 51 0 89 0;
#X connect 55 0 54 0;
#X connect 56 0 54 0;
#X connect 59 0 60 0;
#X connect 61 0 54 0;
#X connect 63 0 54 0;
#X connect 66 0 102 0;
#X connect 70 0 67 0;
#X connect 71 0 69 0;
#X connect 72 0 86 0;
#X connect 72 0 70 0;
#X connect 72 0 96 0;
#X connect 72 0 71 0;
#X connect 72 0 88 0;
#X connect 73 0 72 0;
#X connect 74 0 50 0;
#X connect 85 0 84 0;
#X connect 86 0 54 0;
#X connect 87 0 53 0;
#X connect 88 0 86 0;
#X connect 89 0 90 0;
#X connect 90 0 100 0;
#X connect 91 0 92 0;
#X connect 92 0 57 0;
#X connect 92 0 58 0;
#X connect 95 0 68 0;
#X connect 96 0 68 0;
#X connect 97 0 54 0;
#X connect 99 0 54 0;
#X connect 106 0 87 0;
#X connect 107 0 106 0;
#X coords 0 -1 1 1 403 321 1 10 650;
