#N canvas 863 179 337 406 10;
#X obj 9 131 * -1;
#X obj 46 111 inlet;
#X obj 9 155 + 1;
#X floatatom 56 273 5 0 0 0 - - -, f 5;
#X obj 39 247 crossPot2;
#X obj 65 223 tgl 15 1 empty empty empty 17 7 0 10 -262144 -1 -1 1
1;
#X msg 197 39 0.5;
#X obj 96 103 t b f b;
#X msg 132 123 0, f 1;
#X msg 96 123 1, f 1;
#X msg 136 156 set \$1;
#X obj 26 14 apf SONGS FX\$1 FX\$1 2;
#X obj 135 175 s FX\$1-rcv;
#X obj 117 196 s FX\$1-snd;
#X obj 90 225 r FX\$1-snd;
#X obj 13 302 s FX\$1-rcv;
#X floatatom 56 147 5 0 0 0 - - -, f 5;
#X floatatom 21 94 5 0 0 0 - - -, f 5;
#X obj 178 82 pipe 20;
#X obj 37 50 t b f;
#X obj 107 42 del 10;
#X obj 103 75 f;
#X connect 0 0 2 0;
#X connect 1 0 16 0;
#X connect 1 0 15 0;
#X connect 4 0 3 0;
#X connect 5 0 4 1;
#X connect 6 0 7 0;
#X connect 7 0 9 0;
#X connect 7 1 10 0;
#X connect 7 1 13 0;
#X connect 7 2 8 0;
#X connect 8 0 5 0;
#X connect 9 0 5 0;
#X connect 10 0 12 0;
#X connect 11 0 17 0;
#X connect 11 0 19 0;
#X connect 14 0 4 2;
#X connect 19 0 20 0;
#X connect 19 1 7 0;
#X connect 19 1 21 1;
#X connect 20 0 21 0;
#X connect 21 0 7 0;
