#N canvas 523 1123 406 377 10;
#X obj 53 174 * -1;
#X obj 77 138 inlet;
#X obj 53 198 + 1;
#X obj 70 330 s Sel\$1-rcv;
#X obj 39 15 apf SONGS Sel\$1 Sel\$1 2;
#X floatatom 87 300 5 0 0 0 - - -, f 5;
#X obj 85 268 crossPot2;
#X obj 96 250 tgl 15 1 empty empty empty 17 7 0 10 -262144 -1 -1 1
1;
#X msg 208 78 0.5;
#X obj 127 130 t b f b;
#X msg 163 150 0, f 1;
#X msg 127 150 1, f 1;
#X obj 147 223 s Sel\$1-snd;
#X obj 167 202 s Sel\$1-rcv;
#X msg 167 183 set \$1;
#X obj 121 252 r Sel\$1-snd;
#X obj 44 54 t b f;
#X obj 114 46 del 10;
#X obj 124 88 f;
#X connect 0 0 2 0;
#X connect 1 0 3 0;
#X connect 4 0 16 0;
#X connect 6 0 5 0;
#X connect 7 0 6 1;
#X connect 8 0 9 0;
#X connect 9 0 11 0;
#X connect 9 1 12 0;
#X connect 9 1 14 0;
#X connect 9 2 10 0;
#X connect 10 0 7 0;
#X connect 11 0 7 0;
#X connect 14 0 13 0;
#X connect 15 0 6 2;
#X connect 16 0 17 0;
#X connect 16 1 9 0;
#X connect 16 1 18 1;
#X connect 17 0 18 0;
#X connect 18 0 9 0;
