#N canvas 1988 59 648 817 10;
#X obj 15 700 outlet~;
#X obj 26 226 hip~ 10;
#X obj 73 391 *~;
#X obj 89 348 mull~ 0 3;
#X obj 169 288 mknob 25 100 0 1 0 0 \$1-Mul1-snd \$1-Mul1-rcv Mul1
-2 -6 1 8 -33289 -62784 -62784 3000 1;
#X obj 74 300 dist~ 1;
#X obj 318 308 mknob 25 100 0 1 0 0 \$1-VolAdj-snd \$1-VolAdj-rcv VolAdj
-2 -6 1 8 -33289 -62784 -62784 7900 1;
#X obj 64 561 * 3;
#X obj 252 351 m;
#X obj 252 299 ||;
#X obj 25 581 mull~ 0.7 1;
#X obj 118 328 * 10;
#X obj 261 274 t b f;
#X obj 248 372 tgl 15 0 empty empty empty 17 7 0 10 -262144 -1 -1 0.079798
0.79798;
#X obj 198 57 inlet~;
#X obj 23 9 param \$1 FX Mul1;
#X obj 23 30 param \$1 FX VolAdj;
#X obj 276 689 outlet~;
#X obj 26 204 *~ 0.1;
#X obj 275 57 inlet~;
#X obj 434 311 hip~ 10;
#X obj 433 464 *~;
#X obj 449 421 mull~ 0 3;
#X obj 434 373 dist~ 1;
#X obj 195 556 * 3;
#X obj 156 576 mull~ 0.7 1;
#X obj 478 401 * 10;
#X obj 434 289 *~ 0.1;
#X obj 508 129 paramsym;
#X obj 23 449 orfilter-ste \$1 FX ortho1;
#X obj 26 258 *~ 2;
#X obj 252 233 != 1;
#X floatatom 295 246 5 0 0 0 - - -, f 5;
#X obj 262 197 r /BPM;
#X obj 295 346 * 0.1;
#X obj 434 343 *~ 2;
#X connect 1 0 30 0;
#X connect 2 0 29 0;
#X connect 3 0 2 1;
#X connect 4 0 11 0;
#X connect 5 0 3 0;
#X connect 5 0 2 0;
#X connect 6 0 34 0;
#X connect 7 0 10 1;
#X connect 8 0 7 0;
#X connect 8 0 13 0;
#X connect 8 0 24 0;
#X connect 9 0 8 0;
#X connect 10 0 0 0;
#X connect 11 0 3 1;
#X connect 12 0 9 0;
#X connect 12 1 9 1;
#X connect 14 0 18 0;
#X connect 18 0 1 0;
#X connect 19 0 27 0;
#X connect 20 0 35 0;
#X connect 21 0 29 1;
#X connect 22 0 21 1;
#X connect 23 0 22 0;
#X connect 23 0 21 0;
#X connect 24 0 25 1;
#X connect 25 0 17 0;
#X connect 26 0 22 1;
#X connect 27 0 20 0;
#X connect 29 0 10 0;
#X connect 29 1 25 0;
#X connect 30 0 5 0;
#X connect 30 0 29 0;
#X connect 31 0 9 0;
#X connect 31 0 32 0;
#X connect 33 0 31 0;
#X connect 34 0 8 1;
#X connect 35 0 23 0;
#X connect 35 0 29 1;
