#N canvas 148 581 667 619 10;
#X obj 156 221 ||;
#X obj 173 196 t b f;
#X obj 152 244 tgl 15 0 empty empty empty 17 7 0 10 -262144 -1 -1 1
1;
#X obj 177 167 tgl 15 0 empty empty empty 17 7 0 10 -262144 -1 -1 1
1;
#X obj 282 544 outlet on-off;
#X obj 134 85 sel 0 1;
#X obj 103 63 t f f;
#X obj 169 112 del 250;
#X obj 64 188 spigot;
#X obj 110 167 tgl 15 0 empty empty empty 17 7 0 10 -262144 -1 -1 0
1;
#X msg 166 139 0;
#X msg 135 121 1;
#X obj 61 30 r Play\$1-snd;
#X obj 160 550 s Led\$1-rcv;
#X text 178 17 ecoute=on si play=on ou solosel=on \; ecoute=off si
play=off et solosel=off et solo=on \;;
#X obj 265 126 r MidiMix-snd;
#X obj 265 150 route rec\$1;
#X obj 276 225 tgl 15 0 empty empty empty 17 7 0 10 -262144 -1 -1 0
1;
#X obj 296 220 s SoloOnSel-\$1;
#X obj 240 456 f;
#X obj 204 299 tgl 15 0 empty empty empty 17 7 0 10 -262144 -1 -1 1
1;
#X obj 267 283 tgl 15 0 empty empty empty 17 7 0 10 -262144 -1 -1 1
1;
#X obj 264 250 != 1;
#X obj 335 385 tgl 15 0 empty empty empty 17 7 0 10 -262144 -1 -1 0
1;
#X obj 222 249 t b f;
#X obj 222 274 ||;
#X obj 328 348 &&;
#X obj 253 399 t b f;
#X obj 293 461 tgl 15 0 empty empty empty 17 7 0 10 -262144 -1 -1 1
1;
#X obj 239 432 &&;
#X obj 253 376 != 1;
#X obj 381 166 tabwrite SoloTab;
#X obj 454 111 bng 15 250 50 0 empty empty empty 17 7 0 10 -262144
-1 -1;
#X obj 474 144 f \$1;
#X obj 478 121 loadbang;
#X obj 501 378 tabread SoloTab;
#X obj 501 294 for++ 1 8;
#X obj 501 356 spigot;
#X obj 534 333 != \$1;
#X obj 501 398 sel 1;
#X obj 501 431 i;
#X obj 528 432 + 1;
#X msg 606 380 0, f 1;
#X floatatom 499 453 5 0 0 0 - - -;
#X obj 501 314 t f f;
#X obj 501 273 t b b;
#X obj 506 158 r SoloOn-\$1;
#X obj 329 293 t f b;
#X obj 340 317 t b f;
#X obj 501 252 t b;
#X obj 591 235 sel 1;
#X obj 542 215 bng 15 250 50 0 empty empty empty 17 7 0 10 -262144
-1 -1;
#X obj 571 260 print;
#X obj 328 170 t b f;
#X obj 429 246 bng 15 250 50 0 empty empty empty 17 7 0 10 -262144
-1 -1;
#X obj 455 202 tgl 15 0 empty empty empty 17 7 0 10 -262144 -1 -1 0
1;
#X obj 530 190 del 10;
#X connect 0 0 2 0;
#X connect 1 0 0 0;
#X connect 1 1 0 1;
#X connect 2 0 25 0;
#X connect 3 0 1 0;
#X connect 5 0 8 0;
#X connect 5 1 7 0;
#X connect 5 1 11 0;
#X connect 6 0 0 0;
#X connect 6 1 5 0;
#X connect 7 0 10 0;
#X connect 8 0 3 0;
#X connect 9 0 8 1;
#X connect 10 0 9 0;
#X connect 11 0 9 0;
#X connect 12 0 6 0;
#X connect 15 0 16 0;
#X connect 16 0 17 0;
#X connect 16 0 18 0;
#X connect 16 0 24 0;
#X connect 16 0 22 0;
#X connect 16 0 53 0;
#X connect 19 0 13 0;
#X connect 19 0 4 0;
#X connect 22 0 21 0;
#X connect 22 0 26 0;
#X connect 24 0 25 0;
#X connect 24 1 25 1;
#X connect 25 0 20 0;
#X connect 25 0 29 0;
#X connect 26 0 23 0;
#X connect 26 0 30 0;
#X connect 27 0 29 0;
#X connect 27 1 29 1;
#X connect 29 0 19 0;
#X connect 29 0 28 0;
#X connect 30 0 27 0;
#X connect 32 0 33 0;
#X connect 33 0 31 1;
#X connect 34 0 33 0;
#X connect 35 0 39 0;
#X connect 36 0 44 0;
#X connect 37 0 35 0;
#X connect 38 0 37 1;
#X connect 39 0 40 0;
#X connect 40 0 41 0;
#X connect 40 0 43 0;
#X connect 40 0 48 0;
#X connect 41 0 40 1;
#X connect 42 0 40 0;
#X connect 44 0 37 0;
#X connect 44 1 38 0;
#X connect 45 0 36 0;
#X connect 45 1 42 0;
#X connect 46 0 49 0;
#X connect 46 0 55 0;
#X connect 46 0 56 0;
#X connect 47 0 26 0;
#X connect 48 0 26 0;
#X connect 48 1 26 1;
#X connect 49 0 45 0;
#X connect 51 0 49 0;
#X connect 53 0 49 0;
#X connect 53 1 31 0;
#X connect 56 0 49 0;
