#N canvas 2266 400 326 398 10;
#X obj 84 247 tgl 15 0 empty empty empty 17 7 0 10 -262144 -1 -1 0
1;
#X msg 84 204 1 0;
#X msg 83 225 \$1 \, \$2;
#X obj 61 107 tgl 15 0 empty empty empty 17 7 0 10 -262144 -1 -1 1
1;
#X obj 10 128 demux 0 1;
#X obj 61 81 f;
#X obj 88 82 tgl 15 0 empty empty empty 17 7 0 10 -262144 -1 -1 1 1
;
#X obj 78 59 r Led\$1-real;
#X obj 84 269 s Play\$1-rcv;
#X obj 61 13 inlet;
#X obj 8 7 inlet;
#X obj 38 39 t b b;
#X obj 93 146 bng 15 250 50 0 empty empty empty 17 7 0 10 -262144 -1
-1;
#X obj 239 54 del 10;
#X connect 0 0 8 0;
#X connect 1 0 2 0;
#X connect 2 0 0 0;
#X connect 3 0 4 1;
#X connect 4 1 1 0;
#X connect 4 1 12 0;
#X connect 5 0 3 0;
#X connect 7 0 5 1;
#X connect 7 0 6 0;
#X connect 9 0 11 0;
#X connect 10 0 4 0;
#X connect 11 0 4 0;
#X connect 11 1 5 0;
