#N canvas 1701 150 482 618 10;
#X obj 70 443 tgl 15 0 empty empty empty 17 7 0 10 -262144 -1 -1 0
1;
#X obj 348 183 tgl 15 0 empty empty empty 17 7 0 10 -262144 -1 -1 0
1;
#X msg 325 321 1, f 1;
#X obj 229 351 tgl 15 0 empty empty empty 17 7 0 10 -262144 -1 -1 0
1;
#X obj 80 232 r Shift-rcv;
#X obj 43 236 f;
#X obj 43 413 tgl 15 0 empty empty empty 17 7 0 10 -262144 -1 -1 0
1;
#X obj 2 206 sel 1;
#X obj 32 258 t b f;
#X obj 31 302 change;
#X msg 32 280 0, f 1;
#X obj 178 371 demux 0 1;
#X obj 295 431 print;
#X obj 276 392 sel 0 1;
#X obj 231 266 f;
#X floatatom 257 303 5 0 0 0 - - -;
#X obj 291 266 tgl 15 0 empty empty empty 17 7 0 10 -262144 -1 -1 0
1;
#X obj 78 259 sel 1;
#X obj 78 289 demux 0 1;
#X msg 78 312 1 0;
#X msg 78 335 \$1 \, \$2;
#X obj 93 87 tgl 15 0 empty empty empty 17 7 0 10 -262144 -1 -1 0 1
;
#X msg 349 139 1 0;
#X msg 348 160 \$1 \, \$2;
#X obj 346 89 tgl 15 0 empty empty empty 17 7 0 10 -262144 -1 -1 1
1;
#X msg 175 396 1 0;
#X msg 175 418 \$1 \, \$2;
#X obj 295 110 demux 0 1;
#X obj 164 7 r MidiMix-snd;
#X obj 164 32 route rec\$1;
#X obj 164 59 sel 0 1;
#X obj 70 464 s Play\$1-snd;
#X obj 322 53 f;
#X obj 135 99 t b b;
#X obj 243 241 r Led\$1-real;
#X obj 345 24 r Led\$2-real;
#X obj 348 204 s Play\$2-rcv;
#N canvas 230 686 719 329 MuteSolo 1;
#X obj 359 58 inlet;
#X obj 137 66 inlet;
#X obj 62 245 SoloRappel \$2;
#X obj 152 248 SoloRappel \$3;
#X obj 238 246 SoloRappel \$4;
#X obj 322 245 SoloRappel \$5;
#X obj 407 246 SoloRappel \$6;
#X obj 493 249 SoloRappel \$7;
#X obj 588 252 SoloRappel \$8;
#X connect 0 0 2 1;
#X connect 0 0 8 1;
#X connect 0 0 7 1;
#X connect 0 0 6 1;
#X connect 0 0 5 1;
#X connect 0 0 4 1;
#X connect 0 0 3 1;
#X connect 1 0 2 0;
#X connect 1 0 8 0;
#X connect 1 0 7 0;
#X connect 1 0 6 0;
#X connect 1 0 5 0;
#X connect 1 0 4 0;
#X connect 1 0 3 0;
#X restore 157 200 pd MuteSolo;
#X obj 194 150 t b b b b;
#N canvas 0 686 579 274 RecSolomute 0;
#X obj 28 194 Solo-rcv \$2;
#X obj 17 168 tgl 15 0 empty empty empty 17 7 0 10 -262144 -1 -1 0
1;
#X obj 30 216 tgl 15 0 empty empty empty 17 7 0 10 -262144 -1 -1 0
1;
#X msg 94 72 0, f 1;
#X obj 104 216 tgl 15 0 empty empty empty 17 7 0 10 -262144 -1 -1 0
1;
#X obj 177 215 tgl 15 0 empty empty empty 17 7 0 10 -262144 -1 -1 0
1;
#X obj 251 215 tgl 15 0 empty empty empty 17 7 0 10 -262144 -1 -1 0
1;
#X obj 397 214 tgl 15 0 empty empty empty 17 7 0 10 -262144 -1 -1 0
1;
#X obj 471 214 tgl 15 0 empty empty empty 17 7 0 10 -262144 -1 -1 0
1;
#X obj 102 194 Solo-rcv \$3;
#X obj 175 193 Solo-rcv \$4;
#X obj 249 193 Solo-rcv \$5;
#X obj 322 193 Solo-rcv \$6;
#X obj 395 192 Solo-rcv \$7;
#X obj 469 192 Solo-rcv \$8;
#X obj 91 47 inlet;
#X connect 0 0 2 0;
#X connect 1 0 0 0;
#X connect 3 0 0 0;
#X connect 3 0 9 0;
#X connect 3 0 14 0;
#X connect 3 0 13 0;
#X connect 3 0 12 0;
#X connect 3 0 11 0;
#X connect 3 0 10 0;
#X connect 9 0 4 0;
#X connect 10 0 5 0;
#X connect 11 0 6 0;
#X connect 13 0 7 0;
#X connect 14 0 8 0;
#X connect 15 0 3 0;
#X restore 251 198 pd RecSolomute;
#X connect 0 0 31 0;
#X connect 1 0 36 0;
#X connect 3 0 11 1;
#X connect 4 0 17 0;
#X connect 5 0 8 0;
#X connect 6 0 0 0;
#X connect 7 0 5 0;
#X connect 8 0 10 0;
#X connect 8 1 9 0;
#X connect 9 0 6 0;
#X connect 10 0 9 0;
#X connect 11 0 25 0;
#X connect 14 0 15 0;
#X connect 14 0 3 0;
#X connect 17 0 18 0;
#X connect 18 0 19 0;
#X connect 19 0 20 0;
#X connect 20 0 0 0;
#X connect 22 0 23 0;
#X connect 23 0 1 0;
#X connect 24 0 27 1;
#X connect 25 0 26 0;
#X connect 26 0 0 0;
#X connect 27 1 22 0;
#X connect 28 0 29 0;
#X connect 29 0 21 0;
#X connect 29 0 30 0;
#X connect 30 0 33 0;
#X connect 30 1 38 0;
#X connect 32 0 24 0;
#X connect 33 0 11 0;
#X connect 33 1 37 0;
#X connect 34 0 16 0;
#X connect 34 0 14 1;
#X connect 35 0 32 1;
#X connect 38 0 11 0;
#X connect 38 1 39 0;
#X connect 38 2 37 1;
#X connect 38 3 14 0;
