#N canvas 301 190 899 737 10;
#X obj 616 298 throw~ OUT-1;
#X obj 709 297 throw~ OUT-2;
#N canvas 546 668 542 366 masterMain 0;
#X obj 184 42 mull~ 1 10;
#X obj 349 33 mull~ 1 10;
#X obj 91 34 mull~ 1 10;
#X obj 122 133 lim~;
#X obj 158 133 lim~;
#X obj 170 133 lim~;
#X obj 105 135 vsl 15 80 0 1 0 1 empty empty IN 0 -9 0 10 -262130 -1
-1 7900 1;
#X obj 105 222 pow 2;
#X obj 105 244 * 4;
#X obj 141 135 vsl 15 80 0 1 0 1 empty empty OUT 0 -9 0 10 -262130
-1 -1 0 1;
#X obj 141 222 pow 2;
#X obj 141 244 * 4;
#X obj 312 126 loadbang;
#X msg 312 148 \; pd dsp 1;
#X obj 73 1 inlet~;
#X obj 173 288 outlet~;
#X obj 288 300 outlet~;
#X obj 82 306 s~ \$0-Main-in1;
#X obj 181 17 catch~ \$0-Main-out1;
#X obj 326 8 catch~ \$0-Main-out2;
#X obj 172 -3 catch~ \$0-Main;
#X obj 452 36 catch~ \$0-Main;
#X obj 140 67 inlet;
#X connect 0 0 4 0;
#X connect 1 0 5 0;
#X connect 2 0 3 0;
#X connect 3 0 17 0;
#X connect 4 0 15 0;
#X connect 5 0 16 0;
#X connect 6 0 7 0;
#X connect 7 0 8 0;
#X connect 8 0 2 1;
#X connect 9 0 10 0;
#X connect 10 0 11 0;
#X connect 11 0 0 1;
#X connect 11 0 1 1;
#X connect 12 0 13 0;
#X connect 14 0 2 0;
#X connect 18 0 0 0;
#X connect 19 0 1 0;
#X connect 22 0 9 0;
#X coords 0 -1 1 1 85 120 1 100 100;
#X restore 621 170 pd masterMain;
#X obj 626 146 inlet~ in;
#N canvas 684 990 609 443 Mode 0;
#X obj 131 87 i;
#X obj 131 109 change;
#X obj 131 131 t f f f;
#X obj 131 381 min 3;
#X floatatom 73 159 5 0 0 0 - - -;
#X obj 131 65 * 7.9;
#X obj 131 45 r \$1-Mode;
#X obj 314 59 route label;
#X symbolatom 356 235 15 0 0 0 - - -;
#X obj 314 81 symbol;
#X obj 154 333 + 1;
#X obj 217 168 change;
#X obj 217 147 max 0;
#X obj 217 190 + 0;
#X floatatom 430 131 5 0 0 0 - - -;
#X obj 446 58 == 2;
#X obj 314 103 pack s f f;
#X obj 314 147 route 0 1;
#X msg 345 189 symbol \$1;
#X msg 413 188 symbol \$1/\$2;
#X msg 314 125 \$2 list \$1 \$3;
#X msg 358 266 label \$1;
#X obj 217 212 s \$1-fs1-fragdenum-rcv;
#X obj 154 355 s \$1-fs1-timemode-rcv;
#X obj 131 403 s \$1-fs1-mode-rcv;
#X obj 314 37 r \$1-fs1-mode-rcv;
#X obj 446 36 r \$1-fs1-timemode-snd;
#X obj 397 100 r \$1-fs1-fragdenum;
#X obj 344 293 s \$1-b2-info;
#X floatatom 275 179 5 0 0 0 - - -;
#X floatatom 86 230 5 0 0 0 - - -;
#X obj 204 241 moses 7;
#X msg 203 262 1;
#X msg 154 265 0;
#X obj 154 288 f;
#X obj 154 241 moses 3;
#X obj 217 125 - 3;
#X obj 154 311 change -1;
#X connect 0 0 1 0;
#X connect 1 0 2 0;
#X connect 1 0 4 0;
#X connect 2 0 3 0;
#X connect 2 1 35 0;
#X connect 2 2 36 0;
#X connect 3 0 24 0;
#X connect 5 0 0 0;
#X connect 6 0 5 0;
#X connect 7 0 9 0;
#X connect 8 0 21 0;
#X connect 9 0 16 0;
#X connect 10 0 23 0;
#X connect 11 0 13 0;
#X connect 12 0 11 0;
#X connect 13 0 22 0;
#X connect 13 0 29 0;
#X connect 15 0 16 1;
#X connect 16 0 20 0;
#X connect 17 0 18 0;
#X connect 17 1 19 0;
#X connect 18 0 8 0;
#X connect 19 0 8 0;
#X connect 20 0 17 0;
#X connect 21 0 28 0;
#X connect 25 0 7 0;
#X connect 26 0 15 0;
#X connect 27 0 14 0;
#X connect 27 0 16 2;
#X connect 31 0 32 0;
#X connect 31 1 33 0;
#X connect 32 0 34 0;
#X connect 33 0 34 0;
#X connect 34 0 37 0;
#X connect 35 0 33 0;
#X connect 35 1 31 0;
#X connect 36 0 12 0;
#X connect 37 0 10 0;
#X restore 743 201 pd Mode;
#X obj 276 64 r Sel\$2-snd;
#X obj 290 105 i;
#X obj 290 85 * 16;
#X obj 709 146 r Vol\$2-snd;
#N canvas 2019 62 541 432 play 0;
#X obj 37 304 s Led\$2-rcv;
#X obj 156 221 ||;
#X obj 61 31 r Play\$2-snd;
#X obj 173 196 t b f;
#X obj 152 244 tgl 15 0 empty empty empty 17 7 0 10 -262144 -1 -1 0
1;
#X obj 177 167 tgl 15 0 empty empty empty 17 7 0 10 -262144 -1 -1 0
1;
#X obj 128 334 outlet on-off;
#X obj 134 85 sel 0 1;
#X obj 103 63 t f f;
#X obj 169 112 del 250;
#X obj 64 188 spigot;
#X obj 110 167 tgl 15 0 empty empty empty 17 7 0 10 -262144 -1 -1 0
1;
#X msg 166 139 0;
#X msg 135 121 1;
#X obj 313 43 r CLOCK;
#X obj 224 372 change;
#X obj 262 303 ndmetro 4 4;
#X obj 338 191 change;
#X obj 338 169 == 0;
#X obj 297 243 mux 0 1;
#X obj 339 147 ndmetro 2 4;
#X obj 289 272 tgl 15 0 empty empty empty 17 7 0 10 -262144 -1 -1 0
1;
#X obj 224 350 < 1;
#X obj 160 272 sel 0 1;
#X msg 161 295 1, f 1;
#X msg 182 294 2, f 1;
#X obj 265 385 s LedTempo;
#X obj 282 348 bng 15 250 50 0 empty empty empty 17 7 0 10 -262144
-1 -1;
#X connect 1 0 4 0;
#X connect 2 0 8 0;
#X connect 3 0 1 0;
#X connect 3 1 1 1;
#X connect 4 0 6 0;
#X connect 4 0 0 0;
#X connect 5 0 3 0;
#X connect 7 0 10 0;
#X connect 7 1 9 0;
#X connect 7 1 13 0;
#X connect 8 0 1 0;
#X connect 8 1 7 0;
#X connect 9 0 12 0;
#X connect 10 0 5 0;
#X connect 11 0 10 1;
#X connect 12 0 11 0;
#X connect 13 0 11 0;
#X connect 16 0 22 0;
#X connect 17 0 19 1;
#X connect 18 0 17 0;
#X connect 19 0 21 0;
#X connect 20 0 18 0;
#X connect 22 0 15 0;
#X connect 23 0 24 0;
#X connect 23 1 25 0;
#X connect 24 0 22 1;
#X connect 25 0 22 1;
#X restore 13 8 pd play;
#X floatatom 32 503 5 0 0 0 - - -;
#X obj 33 544 MORPHgroup \$1-\$2 FX;
#X obj 32 519 r FX\$2-snd;
#X obj 630 345 KEPCommon \$1-\$2 \$0 \$1 \$2;
#X obj 591 28 PhraseMelo \$1-\$2;
#X obj 591 94 NoteModulator \$1-\$2;
#X obj 13 49 switch~;
#X obj 13 30 tgl 15 0 empty empty empty 17 7 0 10 -262144 -1 -1 0 1
;
#X obj 43 108 apshifter \$1-\$2 FX shifter1;
#X obj 252 232 apecho \$1-\$2 FX echo1;
#X obj 25 220 apssb \$1-\$2 FX ssb1;
#X obj 157 299 aprev \$1-\$2 FX rev1;
#X obj 414 457 l apflange \$1-\$2 FX flange1;
#X obj 455 215 apflang \$1-\$2 FX flang1;
#X obj 461 337 apdiv \$1-\$2 FX div1;
#X obj 389 23 apgap \$1-\$2 FX gap1;
#X obj 214 509 out \$0-Main;
#X obj 355 513 noisegate~;
#X obj 120 522 s INDICATOR;
#X obj 119 477 intPos 16;
#N canvas 2613 629 566 475 apmaster_autoload 0;
#X obj 84 34 route loaded saved;
#X obj 29 162 loadbang;
#X msg 84 397 loadfile \$1;
#X obj 84 78 symbol;
#X obj 86 337 symbol;
#X msg 84 196 set \$1;
#X msg 84 218 Mur;
#X obj 27 119 split_path;
#X obj 236 353 pack s s;
#X obj 236 308 t b a;
#X obj 84 249 symbol;
#X obj 233 282 print;
#X obj 233 232 bng 15 250 50 0 empty empty empty 17 7 0 10 -262144
-1 -1;
#X obj 233 261 getdir 5;
#X obj 236 330 getdir 5;
#X obj 189 153 r KEP_SETTINGSDIR;
#X obj 84 271 pack s s;
#X msg 84 293 symbol \$2/\$1;
#X obj 29 184 del 2000;
#X obj 83 7 r SONGS-apmaster-snd;
#X obj 236 377 makesymbol %s/KEPSETTINGS/ConfigSong/%s;
#X obj 104 151 t b s;
#X obj 191 118 symbol;
#X obj 194 90 inlet;
#X msg 189 176 symbol \$1/ConfigInstrus/Blaster;
#X obj 84 422 s \$1-\$2-SETTING-apmaster-rcv;
#X symbolatom 49 451 0 0 0 0 - - -;
#X connect 0 0 3 0;
#X connect 0 1 3 0;
#X connect 1 0 18 0;
#X connect 2 0 25 0;
#X connect 3 0 7 0;
#X connect 4 0 2 0;
#X connect 4 0 26 0;
#X connect 5 0 6 0;
#X connect 7 1 5 0;
#X connect 8 0 20 0;
#X connect 9 0 14 0;
#X connect 9 1 8 1;
#X connect 10 0 16 0;
#X connect 12 0 13 0;
#X connect 13 0 11 0;
#X connect 14 0 8 0;
#X connect 15 0 24 0;
#X connect 16 0 17 0;
#X connect 17 0 4 0;
#X connect 18 0 6 0;
#X connect 21 0 5 0;
#X connect 21 1 5 0;
#X connect 22 0 10 0;
#X connect 23 0 22 0;
#X connect 24 0 16 1;
#X restore 595 571 pd apmaster_autoload;
#N canvas 1751 868 303 259 apmaster_symbol 0;
#X obj 75 38 route loaded saved;
#X obj 75 155 outlet;
#X obj 75 67 symbol;
#X obj 75 100 split_path;
#X obj 75 16 r \$1-\$2-SETTING-apmaster-snd;
#X connect 0 0 2 0;
#X connect 0 1 2 0;
#X connect 2 0 3 0;
#X connect 3 1 1 0;
#X connect 4 0 0 0;
#X restore 586 618 pd apmaster_symbol;
#X symbolatom 782 632 0 0 0 0 - #1-#2-prepa-rcv #1-#2-prepa-snd;
#X obj 750 656 l paramsym \$1-\$2 SONGS prepa;
#X obj 621 699 s \$1-\$2-prepa-rcv;
#X obj 556 535 symbol;
#X symbolatom 510 588 0 0 0 0 - - -;
#X symbolatom 536 662 0 0 0 0 - - -;
#X obj 540 506 apsym SONGS \$1-\$2-prepa \$1-\$2-prepa;
#X msg 656 528 Mic9;
#X msg 661 549 Mic92;
#N canvas 1188 401 669 679 AutoTune 0;
#X obj 193 209 limiter~;
#X obj 153 210 z~ 64;
#X obj 153 231 *~;
#X obj 151 104 *~;
#X obj 234 29 env~;
#X obj 234 71 change;
#X msg 264 148 0 500;
#X obj 234 169 line~;
#X obj 152 537 *~, f 18;
#X obj 302 540 line~;
#X msg 302 520 \$1 10;
#X obj 305 482 hsl 128 15 0 1 0 1 empty empty vol -2 -8 0 10 -262144
-1 -1 7700 1;
#X obj 302 501 pow 2;
#X obj 234 120 sel 1 0;
#X obj 315 62 tgl 15 1 empty empty empty 17 7 0 10 -262144 -1 -1 1
1;
#X obj 234 92 *;
#X obj 259 93 t b f;
#X obj 189 342 shifter;
#X floatatom 229 280 5 0 0 0 - - -;
#X obj 271 230 fiddle~ 2048;
#X obj 317 255 unpack f f;
#X obj 317 276 t f f;
#X obj 154 269 *~ 1;
#X obj 188 270 *~ 0;
#X obj 299 181 tgl 15 0 empty empty empty 17 7 0 10 -262144 -1 -1 0
1;
#X obj 193 246 == 0;
#X obj 317 297 gammeRound /GAMME 5;
#X msg 234 148 1 1;
#X obj 234 50 > 57;
#X obj 151 61 hip~ 120;
#X obj 189 309 lp4_butt~ 5000;
#X obj 96 307 hp4_butt~ 5000;
#X obj 437 249 r gammeSym;
#X msg 437 270 set \$1;
#X obj 185 402 *~ 0;
#X obj 207 383 == 0;
#X obj 153 402 *~ 1;
#X obj 153 376 +~;
#X obj 179 381 f;
#X obj 185 490 atan~;
#X obj 353 183 tgl 15 1 empty empty empty 17 7 0 10 -262144 -1 -1 1
1;
#X obj 185 423 hip~ 200;
#X obj 185 448 bp~ 2000 5;
#X obj 261 449 hip~ 7000;
#X obj 185 469 *~ 16, f 12;
#X obj 152 173 *~ 16;
#X obj 185 511 *~ 0.5;
#X obj 6 372 hsl 128 15 0 1 0 0 empty empty DelaySend -2 -8 0 10 -262144
-1 -1 0 1;
#X obj 16 246 hsl 128 15 0 1 0 0 empty empty DelayTime -2 -8 0 10 -262144
-1 -1 0 1;
#X obj 43 453 clocked_delay;
#X obj 153 581 outlet~;
#X obj 152 14 inlet~;
#X obj 392 123 inlet;
#X obj 476 125 inlet;
#X text 502 98 disto;
#X text 387 95 AT;
#X obj 452 173 hsl 128 15 0 1 0 0 empty empty Disto -2 -8 0 10 -262144
-1 -1 0 1;
#X obj 26 177 Ax \$1-\$2 y;
#X obj 7 332 Ax \$1-\$2 z;
#X obj 290 323 -;
#X obj 294 366 - 0;
#X connect 0 0 2 1;
#X connect 1 0 2 0;
#X connect 2 0 19 0;
#X connect 2 0 22 0;
#X connect 2 0 23 0;
#X connect 3 0 45 0;
#X connect 4 0 28 0;
#X connect 5 0 15 0;
#X connect 6 0 7 0;
#X connect 7 0 3 1;
#X connect 8 0 50 0;
#X connect 9 0 8 1;
#X connect 10 0 9 0;
#X connect 11 0 12 0;
#X connect 12 0 10 0;
#X connect 13 0 27 0;
#X connect 13 1 6 0;
#X connect 14 0 16 0;
#X connect 15 0 13 0;
#X connect 16 0 15 0;
#X connect 16 1 15 1;
#X connect 17 0 37 0;
#X connect 18 0 17 1;
#X connect 19 2 20 0;
#X connect 20 0 21 0;
#X connect 21 0 26 0;
#X connect 21 1 59 1;
#X connect 22 0 37 0;
#X connect 23 0 30 0;
#X connect 23 0 31 0;
#X connect 24 0 25 0;
#X connect 24 0 23 1;
#X connect 25 0 22 1;
#X connect 26 0 59 0;
#X connect 27 0 7 0;
#X connect 28 0 5 0;
#X connect 29 0 3 0;
#X connect 29 0 4 0;
#X connect 30 0 17 0;
#X connect 31 0 37 0;
#X connect 32 0 33 0;
#X connect 33 0 26 0;
#X connect 34 0 41 0;
#X connect 35 0 34 1;
#X connect 36 0 8 0;
#X connect 36 0 49 0;
#X connect 37 0 36 0;
#X connect 37 0 34 0;
#X connect 38 0 36 1;
#X connect 38 0 35 0;
#X connect 39 0 46 0;
#X connect 40 0 38 0;
#X connect 41 0 42 0;
#X connect 41 0 43 0;
#X connect 42 0 44 0;
#X connect 43 0 44 0;
#X connect 44 0 39 0;
#X connect 45 0 0 0;
#X connect 45 0 1 0;
#X connect 46 0 8 0;
#X connect 46 0 49 0;
#X connect 47 0 49 1;
#X connect 48 0 49 2;
#X connect 49 0 8 0;
#X connect 51 0 29 0;
#X connect 52 0 24 0;
#X connect 53 0 40 0;
#X connect 57 0 48 0;
#X connect 58 0 47 0;
#X connect 59 0 60 0;
#X connect 60 0 17 1;
#X restore 129 41 pd AutoTune;
#X floatatom 334 575 5 0 0 0 - - -;
#X floatatom 334 621 5 0 0 0 - - -;
#X obj 334 597 Ax \$1-\$2 x;
#X obj 727 24 r Play\$2-snd;
#X obj 720 61 Axelero \$1-\$2;
#X obj 860 51 tgl 15 0 empty empty empty 17 7 0 10 -262144 -1 -1 0
1;
#X obj 90 0 r~ \$0-Main-in1;
#X obj 196 -1 r Play\$2-snd;
#X obj 128 71 +~;
#X floatatom 404 575 5 0 0 0 - - -;
#X floatatom 404 621 5 0 0 0 - - -;
#X floatatom 459 623 5 0 0 0 - - -;
#X floatatom 459 669 5 0 0 0 - - -;
#X obj 404 597 Ax \$1-\$2 y;
#X obj 459 645 Ax \$1-\$2 z;
#X obj 559 126 r~ IN-1;
#X obj 214 430 motex/noisegate~ 53 10 10;
#X obj 214 455 *~ 0.4;
#X obj 614 121 r~ IN-2;
#X connect 2 0 0 0;
#X connect 2 1 1 0;
#X connect 3 0 2 0;
#X connect 5 0 7 0;
#X connect 7 0 6 0;
#X connect 8 0 2 1;
#X connect 9 0 17 0;
#X connect 12 0 10 0;
#X connect 12 0 11 0;
#X connect 12 0 29 0;
#X connect 17 0 16 0;
#X connect 18 0 58 0;
#X connect 19 0 58 0;
#X connect 20 0 58 0;
#X connect 21 0 58 0;
#X connect 23 0 58 0;
#X connect 24 0 58 0;
#X connect 25 0 19 0;
#X connect 25 0 21 0;
#X connect 25 0 58 0;
#X connect 29 1 28 0;
#X connect 31 0 34 0;
#X connect 31 0 37 0;
#X connect 35 0 36 0;
#X connect 35 0 30 0;
#X connect 38 0 35 0;
#X connect 39 0 30 0;
#X connect 40 0 30 0;
#X connect 41 0 50 0;
#X connect 42 0 44 0;
#X connect 44 0 43 0;
#X connect 45 0 46 0;
#X connect 45 0 47 0;
#X connect 48 0 41 0;
#X connect 49 0 41 1;
#X connect 50 0 18 0;
#X connect 50 0 20 0;
#X connect 50 0 23 0;
#X connect 50 0 24 0;
#X connect 50 0 25 0;
#X connect 51 0 55 0;
#X connect 53 0 56 0;
#X connect 55 0 52 0;
#X connect 56 0 54 0;
#X connect 57 0 2 0;
#X connect 58 0 59 0;
#X connect 59 0 26 0;
#X connect 59 0 26 1;
#X connect 60 0 2 0;
